<svg xmlns="http://www.w3.org/2000/svg" width="11" height="13" viewBox="0 0 11 13">
    <path fill="#0A0A0A" fill-rule="evenodd" stroke="#0A0A0A" stroke-width=".55" d="M7.633 3.586c1.216 0 1.994 1.298 1.994 1.298s-1.186.71-1.186 2.253c0 1.83 1.49 2.363 1.49 2.363s-1.176 3.08-2.497 3.08c-.743 0-.792-.472-1.78-.472-.856 0-1.145.472-1.798.472C2.61 12.58 1 9.578 1 7.137 1 4.6 2.63 3.586 3.651 3.586c.898 0 1.271.582 1.994.582.608 0 1.086-.582 1.988-.582zM7.424 1c.18 1.243-.842 2.78-2.063 2.73C5.18 2.149 6.497 1.083 7.424 1z"/>
</svg>
