<svg xmlns="http://www.w3.org/2000/svg" width="42" height="42" viewBox="0 0 42 42">
    <g fill="none" fill-rule="evenodd" stroke="#0A0A0A" transform="translate(1 1)">
        <circle cx="20" cy="20" r="20"/>
        <g stroke-linecap="round" stroke-linejoin="round">
            <path d="M14.4 22.867c0 2.333 0 5.444 4 7M14.4 15.089v7.778M28.8 21.311c.857 0 1.65-.445 2.078-1.167a2.277 2.277 0 0 0 0-2.333 2.413 2.413 0 0 0-2.078-1.167"/>
            <path d="M15.2 22.867H9.6c-1.325 0-2.4-1.045-2.4-2.334v-3.11c0-1.29 1.075-2.334 2.4-2.334h7.2a22.422 22.422 0 0 0 12-3.889v15.556a20.543 20.543 0 0 0-12-3.89h-1.6z"/>
        </g>
    </g>
</svg>
