<svg xmlns="http://www.w3.org/2000/svg" width="13" height="14" viewBox="0 0 13 14">
    <g fill="#0AB06A" fill-rule="nonzero">
        <path d="M2.6 13.097h7.8V14H2.6v-.903zm0-1.355h1.733c0-.998-.776-1.807-1.733-1.807v1.807zm7.8 0V9.935c-.957 0-1.733.81-1.733 1.807H10.4z"/>
        <path d="M10.4 1.806H2.6v7.226c1.436 0 2.6 1.213 2.6 2.71h2.6c0-1.497 1.164-2.71 2.6-2.71V1.806zM6.933 7.948v.181c0 .25-.194.452-.433.452a.443.443 0 0 1-.433-.452v-.18c-.642-.2-1.083-.815-1.084-1.514 0-.249.194-.451.434-.451.239 0 .433.202.433.451 0 .375.291.678.65.678.325 0 .65-.18.65-.587s0-.43-.737-.587c-1.256-.294-1.43-1.062-1.43-1.49.003-.679.45-1.267 1.084-1.423v-.18c0-.162.082-.311.216-.392.134-.08.3-.08.434 0s.216.23.216.391v.18c.558.175.97.666 1.062 1.265a.465.465 0 0 1-.118.472.42.42 0 0 1-.46.086.451.451 0 0 1-.267-.4.658.658 0 0 0-.65-.564c-.325 0-.65.18-.65.587 0 .406 0 .406.737.587 1.235.294 1.43 1.039 1.43 1.468-.003.678-.45 1.266-1.084 1.422z"/>
        <path d="M12.35 0H.65A.664.664 0 0 0 0 .677v4.065c0 .374.291.677.65.677h1.083V1.13h9.534v4.29h1.083c.359 0 .65-.303.65-.677V.677A.664.664 0 0 0 12.35 0z"/>
    </g>
</svg>
