<svg xmlns="http://www.w3.org/2000/svg" width="44" height="44" viewBox="0 0 44 44">
    <g fill="none" fill-rule="evenodd" opacity=".8">
        <rect width="44" height="44" fill="#0A0A0A" fill-opacity=".4" rx="5.4"/>
        <path fill="#FFF" fill-rule="nonzero" d="M33.186 34.222l-8.41-8.48 1.372-1.383 8.58 8.652v-5.555h1.939v8.722h-8.819v-1.956h5.338zm-23.18-1.441l8.124-8.194 1.371 1.383-8.667 8.741h5.822v1.956h-8.59v-9.211h1.94v5.325zm24.722-22.168l-8.281 8.352-1.372-1.383L33.3 9.29h-5.45V7.333h8.818v8.836h-1.94v-5.556zM11.206 9.29l7.996 8.065-1.37 1.383-7.826-7.893v5.325h-1.94V7.333h8.59V9.29h-5.45z"/>
    </g>
</svg>
