<svg xmlns="http://www.w3.org/2000/svg" width="52" height="52" viewBox="0 0 52 52">
    <g fill="none" fill-rule="evenodd" stroke="#0A0A0A" transform="translate(1 1)">
        <circle cx="25" cy="25" r="25"/>
        <g stroke-linecap="round" stroke-linejoin="round" stroke-width=".96">
            <path d="M26.087 11c-6.731 0-11.539 2.513-11.539 7.733v4.834a9.687 9.687 0 0 1-1.923 3.866c-.433.435-.577 1.209.433 1.499 1.01.29 1.202.193 1.298.821.096.629-.289 1.354.288 1.547.577.193.048.822.625 1.305s-.48 2.513 1.635 2.513h2.26c1.105 0 1.153.822 1.153 1.934 0 1.111-.961 2.9-.961 2.9h13.461s-1.923-1.982-1.923-3.867c0-2.9 5.77-7.492 5.77-15.467 0-7.975-5.77-9.618-10.577-9.618z"/>
            <path d="M25.798 17.767l-2.596 3.866h4.808l-2.404 3.577"/>
            <path d="M29.837 16.897a5.278 5.278 0 0 0-4.124-2.026 5.278 5.278 0 0 0-4.146 1.977 3.863 3.863 0 0 0-3.229 4.158 3.854 3.854 0 0 0 3.902 3.527h.337a5.218 5.218 0 0 0 6.202 0h.192a3.853 3.853 0 0 0 3.832-3.429 3.865 3.865 0 0 0-2.966-4.207z"/>
        </g>
    </g>
</svg>
