<svg xmlns="http://www.w3.org/2000/svg" width="27" height="31" viewBox="0 0 27 31">
    <g fill="none" fill-rule="evenodd" stroke="#202020" stroke-linecap="round" stroke-linejoin="round" stroke-width=".96">
        <path d="M15.087 1C8.356 1 3.548 3.513 3.548 8.733v4.834a9.687 9.687 0 0 1-1.923 3.866c-.433.435-.577 1.209.433 1.499 1.01.29 1.202.193 1.298.821.096.629-.289 1.354.288 1.547.577.193.048.822.625 1.305s-.48 2.513 1.635 2.513h2.26c1.105 0 1.153.822 1.153 1.934 0 1.111-.961 2.9-.961 2.9h13.461s-1.923-1.982-1.923-3.867c0-2.9 5.77-7.492 5.77-15.467C25.663 2.643 19.893 1 15.086 1z"/>
        <path d="M14.798 7.767l-2.596 3.866h4.808l-2.404 3.577"/>
        <path d="M18.837 6.897a5.278 5.278 0 0 0-4.124-2.026 5.278 5.278 0 0 0-4.146 1.977 3.863 3.863 0 0 0-3.229 4.158 3.854 3.854 0 0 0 3.902 3.527h.337a5.218 5.218 0 0 0 6.202 0h.192a3.853 3.853 0 0 0 3.832-3.429 3.865 3.865 0 0 0-2.966-4.207z"/>
    </g>
</svg>
