<svg xmlns="http://www.w3.org/2000/svg" width="60" height="60" viewBox="0 0 60 60">
    <g fill="none" fill-rule="evenodd">
        <circle cx="30" cy="30" r="30" fill="#0A0A0A"/>
        <g stroke="#FFF" stroke-linecap="round" stroke-linejoin="round">
            <path d="M31.304 13.2c-8.077 0-13.846 3.016-13.846 9.28v5.8a11.624 11.624 0 0 1-2.308 4.64c-.52.522-.692 1.45.52 1.798 1.21.348 1.442.232 1.557.986.115.754-.346 1.624.346 1.856.692.232.058.986.75 1.566.692.58-.577 3.016 1.962 3.016h2.711c1.327 0 1.385.986 1.385 2.32 0 1.334-1.154 3.48-1.154 3.48H39.38s-2.308-2.378-2.308-4.64c0-3.48 6.923-8.99 6.923-18.56 0-9.57-6.923-11.542-12.692-11.542z"/>
            <path d="M30.958 21.32l-3.116 4.64h5.77l-2.885 4.292"/>
            <path d="M35.804 20.276a6.335 6.335 0 0 0-4.948-2.431 6.334 6.334 0 0 0-4.975 2.373c-2.395.382-4.088 2.561-3.875 4.99.212 2.428 2.258 4.277 4.682 4.232h.404a6.262 6.262 0 0 0 7.443 0h.23a4.624 4.624 0 0 0 4.6-4.115 4.638 4.638 0 0 0-3.561-5.049z"/>
        </g>
    </g>
</svg>
