<svg xmlns="http://www.w3.org/2000/svg" width="42" height="42" viewBox="0 0 42 42">
    <g fill="none" fill-rule="evenodd" stroke="#0A0A0A" transform="translate(1 1)">
        <circle cx="20" cy="20" r="20"/>
        <g stroke-linecap="round" stroke-linejoin="round">
            <path d="M24.849 8h-9.701A7.15 7.15 0 0 0 8 15.134v9.68a7.15 7.15 0 0 0 7.148 7.134h9.7A7.15 7.15 0 0 0 32 24.814v-9.68A7.15 7.15 0 0 0 24.849 8zm4.735 16.814a4.73 4.73 0 0 1-4.735 4.724h-9.701a4.73 4.73 0 0 1-4.735-4.724v-9.68a4.73 4.73 0 0 1 4.735-4.725h9.7a4.73 4.73 0 0 1 4.736 4.725v9.68z"/>
            <path d="M20 13.78a6.194 6.194 0 1 0 6.206 6.194A6.208 6.208 0 0 0 20 13.78zm0 9.98a3.784 3.784 0 1 1 .017-7.569A3.784 3.784 0 0 1 20 23.76zm7.705-9.934a1.488 1.488 0 1 1-2.975.007 1.488 1.488 0 0 1 2.975-.007z"/>
        </g>
    </g>
</svg>
