<svg xmlns="http://www.w3.org/2000/svg" width="22" height="22" viewBox="0 0 22 22">
    <g fill="none" fill-rule="evenodd" transform="translate(1 1)">
        <circle cx="10" cy="10" r="10" stroke="#0A0A0A" stroke-width=".7"/>
        <g stroke="#202020" stroke-linecap="round" stroke-linejoin="round" stroke-width=".6">
            <path d="M12.424 4h-4.85A3.575 3.575 0 0 0 4 7.567v4.84a3.575 3.575 0 0 0 3.574 3.567h4.85A3.575 3.575 0 0 0 16 12.407v-4.84A3.575 3.575 0 0 0 12.424 4zm2.368 8.407a2.365 2.365 0 0 1-2.368 2.362h-4.85a2.365 2.365 0 0 1-2.368-2.362v-4.84a2.365 2.365 0 0 1 2.368-2.363h4.85a2.365 2.365 0 0 1 2.368 2.363v4.84z"/>
            <path d="M10 6.89a3.097 3.097 0 1 0 3.103 3.097A3.104 3.104 0 0 0 10 6.89zm0 4.99a1.892 1.892 0 1 1 .008-3.784A1.892 1.892 0 0 1 10 11.88zm3.853-4.967a.744.744 0 1 1-1.488.003.744.744 0 0 1 1.488-.003z"/>
        </g>
    </g>
</svg>
