<svg xmlns="http://www.w3.org/2000/svg" width="32" height="32" viewBox="0 0 32 32">
    <g fill="none" fill-rule="evenodd" stroke="#8B9699" transform="translate(1 1)">
        <circle cx="15" cy="15" r="15"/>
        <path stroke-linecap="round" stroke-linejoin="round" d="M18.637 6H11.36A5.363 5.363 0 0 0 6 11.35v7.26a5.363 5.363 0 0 0 5.361 5.35h7.276A5.363 5.363 0 0 0 24 18.61v-7.26A5.363 5.363 0 0 0 18.637 6zm3.551 12.61a3.547 3.547 0 0 1-3.551 3.544H11.36A3.548 3.548 0 0 1 7.81 18.61v-7.26a3.547 3.547 0 0 1 3.551-3.543h7.276a3.548 3.548 0 0 1 3.551 3.543v7.26z"/>
        <path stroke-linecap="round" stroke-linejoin="round" d="M15 10.335a4.645 4.645 0 1 0 4.654 4.645A4.656 4.656 0 0 0 15 10.335zm0 7.485a2.838 2.838 0 1 1 .013-5.677A2.838 2.838 0 0 1 15 17.82zm5.779-7.45a1.116 1.116 0 1 1-2.232.005 1.116 1.116 0 0 1 2.232-.005z"/>
    </g>
</svg>
