<svg xmlns="http://www.w3.org/2000/svg" width="32" height="32" viewBox="0 0 32 32">
    <g fill="none" fill-rule="evenodd" transform="translate(1 1)">
        <circle cx="15" cy="15" r="15" stroke="#0A0A0A" stroke-linecap="round" stroke-linejoin="round"/>
        <path fill="#0A0A0A" d="M10.452 6a.456.456 0 0 0-.333.16.446.446 0 0 0-.101.356l.786 6.272h-.336a.452.452 0 1 0 0 .904h.45l.453 3.618h-.903a.446.446 0 0 0-.33.129.447.447 0 0 0 0 .648c.087.085.206.13.33.127h1.016l.8 6.39a.453.453 0 0 0 .9 0l.8-6.39h2.033l.8 6.39a.453.453 0 1 0 .9 0l.8-6.39h1.017a.45.45 0 0 0 .328-.775.445.445 0 0 0-.328-.13h-.903l.453-3.617h.45A.45.45 0 0 0 20 13.24a.454.454 0 0 0-.466-.452h-.336l.786-6.272a.455.455 0 0 0-.446-.514.453.453 0 0 0-.454.403l-.8 6.383h-2.033l-.8-6.383a.453.453 0 0 0-.9 0l-.8 6.383h-2.033l-.8-6.383A.454.454 0 0 0 10.451 6zM15 10.107l.336 2.681h-.673l.337-2.681zm-3.17 3.585h1.806l-.453 3.618h-.9l-.453-3.618zm2.72 0h.9l.453 3.618h-1.806l.453-3.618zm1.813 0h1.807l-.454 3.618h-.9l-.453-3.618zm-3.966 4.522h.673l-.337 2.688-.336-2.688zm4.533 0h.673l-.336 2.688-.337-2.688z"/>
    </g>
</svg>
