<svg xmlns="http://www.w3.org/2000/svg" width="64" height="64" viewBox="0 0 64 64">
    <defs>
        <linearGradient id="a" x1="0%" y1="100%" y2="0%">
            <stop offset="0%" stop-color="#50FDC6"/>
            <stop offset="100%" stop-color="#3FCAFF"/>
        </linearGradient>
    </defs>
    <g fill="none" fill-rule="evenodd">
        <circle cx="32" cy="32" r="32" fill="url(#a)"/>
        <path fill="#0A0A0A" d="M22.43 38.674c-.4 0-.738-.13-1.015-.388a1.249 1.249 0 0 1-.415-.949c0-.365.138-.677.415-.935a1.43 1.43 0 0 1 1.014-.389h18.924c.4 0 .737.13 1.014.389.277.258.415.57.415.935 0 .365-.138.677-.415.936a1.479 1.479 0 0 1-1.014.4h-6.535c.935 1.13 1.198 2.727 1.128 4.16-.069 1.413-1.162 2.57-1.802 3.181a7.2 7.2 0 0 1-2.26 1.451 7.212 7.212 0 0 1-2.77.535h-6.685a1.479 1.479 0 0 1-1.014-.401 1.235 1.235 0 0 1-.415-.936c0-.365.138-.676.415-.935a1.43 1.43 0 0 1 1.014-.389h6.685a4.414 4.414 0 0 0 3.002-1.178c.385-.36.903-.85.972-1.503.07-.651.083-1.067-.14-1.546-.222-.48-.435-.902-.825-1.267a4.344 4.344 0 0 0-1.362-.86 4.375 4.375 0 0 0-1.647-.311h-6.685zm4.342-4.727c-1.143 0-2.069-.88-2.069-1.964s.926-1.963 2.07-1.963c1.142 0 2.069.879 2.069 1.963 0 1.085-.927 1.964-2.07 1.964zm9.802 0c-1.143 0-2.069-.88-2.069-1.964s.926-1.963 2.07-1.963c1.142 0 2.069.879 2.069 1.963 0 1.085-.927 1.964-2.07 1.964zM22.458 17h19.084a1.6 1.6 0 0 1 .571.101c.179.068.335.163.468.286a1.266 1.266 0 0 1 .42.957l-.001 3.6a5.58 5.58 0 0 1-.536 2.414 6.308 6.308 0 0 1-1.458 1.977 7.042 7.042 0 0 1-2.152 1.337 6.96 6.96 0 0 1-2.619.494c-.605 0-1.194-.07-1.767-.209a6.77 6.77 0 0 1-1.622-.62c-.51-.275-1.062-.618-1.524-1.027l-.546-.546-7.521 2.43c-.348.115-.614.173-.797.173-.211 0-.404-.034-.578-.102a1.443 1.443 0 0 1-.46-.285 1.298 1.298 0 0 1-.42-.957c0-.473.238-.858.715-1.153l7.769-2.406v-3.777h-7.027c-.403 0-.747-.13-1.03-.393a1.246 1.246 0 0 1-.427-.95c0-.372.142-.69.426-.951A1.467 1.467 0 0 1 22.458 17zm17.601 2.79h-7.623v2.254c0 .49.1.95.3 1.38.2.43.475.804.825 1.12.35.317.754.568 1.214.754.459.186.947.279 1.466.279a3.96 3.96 0 0 0 2.7-1.039c.346-.32.618-.696.818-1.127.2-.43.3-.886.3-1.367V19.79z"/>
    </g>
</svg>
