<svg xmlns="http://www.w3.org/2000/svg" width="18" height="26" viewBox="0 0 18 26">
    <path fill="#73FDEA" fill-rule="evenodd" d="M1.17 18.178c-.327 0-.604-.108-.83-.326a1.06 1.06 0 0 1-.34-.795c0-.306.113-.568.34-.785.226-.217.503-.325.83-.325h15.482c.327 0 .604.108.83.325.227.217.34.479.34.785 0 .306-.113.568-.34.785-.226.217-.503.329-.83.336h-5.346c.765.947.98 2.286.923 3.489-.057 1.184-.951 2.155-1.475 2.667a5.876 5.876 0 0 1-1.849 1.218A5.775 5.775 0 0 1 6.64 26h-5.47a1.194 1.194 0 0 1-.83-.336A1.048 1.048 0 0 1 0 24.879c0-.306.113-.568.34-.785.226-.217.503-.325.83-.325h5.469c.475 0 .924-.09 1.347-.267a3.601 3.601 0 0 0 1.109-.721c.315-.303.738-.714.795-1.261.057-.547.068-.895-.114-1.297-.182-.402-.356-.757-.676-1.063a3.543 3.543 0 0 0-2.461-.982h-5.47zm3.553-3.965c-.935 0-1.693-.737-1.693-1.646 0-.91.758-1.647 1.693-1.647s1.693.737 1.693 1.647-.758 1.646-1.693 1.646zm8.02 0c-.935 0-1.693-.737-1.693-1.646 0-.91.758-1.647 1.693-1.647s1.693.737 1.693 1.647-.758 1.646-1.693 1.646zM1.193 0h15.614c.166 0 .321.028.467.085.147.057.274.136.383.24.109.102.193.22.253.355.06.135.09.284.09.447v3.019c0 .716-.146 1.39-.439 2.025a5.285 5.285 0 0 1-1.192 1.658 5.742 5.742 0 0 1-1.76 1.122 5.573 5.573 0 0 1-2.144.414 5.95 5.95 0 0 1-1.446-.175 5.458 5.458 0 0 1-1.327-.52c-.416-.231-.868-.518-1.247-.862L8 7.35 1.845 9.39c-.285.095-.502.143-.652.143-.173 0-.33-.028-.473-.085a1.176 1.176 0 0 1-.377-.239A1.088 1.088 0 0 1 0 8.406c0-.396.195-.719.585-.967l6.356-2.017V2.254H1.193c-.33 0-.612-.11-.844-.33A1.057 1.057 0 0 1 0 1.127C0 .815.116.549.349.33.58.11.862 0 1.193 0zm14.401 2.34H9.356v1.89c0 .41.082.797.246 1.158a2.9 2.9 0 0 0 .675.94c.286.265.617.476.993.632a3.1 3.1 0 0 0 1.2.233 3.17 3.17 0 0 0 1.216-.233c.38-.156.71-.368.993-.638.283-.269.506-.584.67-.945.163-.36.245-.743.245-1.147V2.34z"/>
</svg>
