<svg xmlns="http://www.w3.org/2000/svg" width="80" height="80" viewBox="0 0 80 80">
    <g fill="none" fill-rule="evenodd">
        <circle cx="40" cy="40" r="40" fill="#121217"/>
        <path fill="#08F6F6" d="M28.4 47.648c-.485 0-.894-.16-1.23-.481a1.563 1.563 0 0 1-.503-1.175c0-.452.167-.838.503-1.159.336-.32.745-.481 1.23-.481h22.937c.484 0 .893.16 1.229.481.336.32.503.707.503 1.159 0 .452-.167.838-.503 1.159-.336.32-.745.486-1.23.497h-7.92c1.133 1.398 1.452 3.376 1.367 5.152-.083 1.75-1.408 3.183-2.184 3.94a8.708 8.708 0 0 1-2.74 1.798 8.578 8.578 0 0 1-3.357.662h-8.103a1.772 1.772 0 0 1-1.229-.497 1.545 1.545 0 0 1-.503-1.159c0-.452.167-.838.503-1.159.336-.32.745-.48 1.23-.48h8.102c.704 0 1.37-.132 1.996-.395a5.337 5.337 0 0 0 1.642-1.064c.468-.447 1.095-1.055 1.18-1.863.084-.807.1-1.322-.17-1.916-.27-.594-.528-1.117-1.001-1.569a5.251 5.251 0 0 0-3.647-1.45h-8.103zm5.263-5.856c-1.385 0-2.508-1.089-2.508-2.432s1.123-2.432 2.508-2.432c1.386 0 2.509 1.089 2.509 2.432s-1.123 2.432-2.509 2.432zm11.882 0c-1.386 0-2.509-1.089-2.509-2.432s1.123-2.432 2.509-2.432c1.385 0 2.508 1.089 2.508 2.432s-1.123 2.432-2.508 2.432zM28.433 20.8h23.134c.244 0 .475.042.691.126.217.083.406.201.567.353.161.152.286.327.375.526.089.199.133.419.133.66v4.458a7.039 7.039 0 0 1-.65 2.991 7.806 7.806 0 0 1-1.766 2.45 8.51 8.51 0 0 1-2.609 1.656 8.279 8.279 0 0 1-3.175.612 8.84 8.84 0 0 1-2.141-.259 8.1 8.1 0 0 1-1.967-.77c-.617-.34-1.286-.763-1.847-1.271l-.661-.676-9.117 3.011c-.422.142-.744.213-.967.213-.255 0-.489-.042-.7-.126a1.743 1.743 0 0 1-.558-.353 1.607 1.607 0 0 1-.508-1.185c0-.586.289-1.063.866-1.429l9.417-2.98V24.13h-8.517c-.489 0-.905-.163-1.25-.487a1.559 1.559 0 0 1-.516-1.178c0-.46.172-.853.516-1.177a1.757 1.757 0 0 1 1.25-.487zm21.336 3.456h-9.24v2.792c0 .606.12 1.176.363 1.71.242.533.576.996 1 1.388a4.91 4.91 0 0 0 1.471.933c.557.23 1.15.345 1.777.345.64 0 1.24-.115 1.802-.345a4.701 4.701 0 0 0 1.471-.941c.42-.398.75-.863.992-1.396a4.046 4.046 0 0 0 .364-1.694v-2.792z"/>
    </g>
</svg>
