<svg xmlns="http://www.w3.org/2000/svg" width="32" height="32" viewBox="0 0 32 32">
    <g fill="none" fill-rule="evenodd" stroke="#8B9699" transform="translate(1 1)">
        <circle cx="15" cy="15" r="15"/>
        <path fill-rule="nonzero" d="M8.134 10.56a.752.752 0 0 0-.226-.617L6.227 7.817V7.5h5.218l4.034 9.286L19.025 7.5H24v.317l-1.437 1.447a.452.452 0 0 0-.16.423v10.626a.452.452 0 0 0 .16.423l1.403 1.447v.317h-7.058v-.317L18.36 20.7c.143-.15.143-.194.143-.423v-8.59l-4.042 10.777h-.546L9.21 11.689v7.222c-.04.304.057.61.26.829l1.891 2.407v.318H6v-.318l1.89-2.407a.992.992 0 0 0 .244-.829V10.56z"/>
    </g>
</svg>
