<svg xmlns="http://www.w3.org/2000/svg" width="12" height="15" viewBox="0 0 12 15">
    <g fill="none" fill-rule="evenodd">
        <path fill="#0AB06A" d="M7.5 4S12 7.5 12 12.5A2.5 2.5 0 0 1 9.5 15h-7A2.5 2.5 0 0 1 0 12.5C0 7.5 4.5 4 4.5 4s-3-2.6-3-3.5c0-.9 2 .5 3 .5C5.925 1 6.075 0 7 0s1.025 1.025 2.5 1.025c.575 0-.5 1.5-2 2.975z"/>
        <path fill="#0AB06A" d="M4.5 4h3.25A4.8 4.8 0 0 0 11 3"/>
        <path stroke="#FFF" stroke-linecap="round" stroke-linejoin="round" stroke-width=".7" d="M7.475 8A1.5 1.5 0 0 0 6 6.75c-.825 0-1.5.55-1.5 1.375S5.25 9.325 6 9.5m-1.5 1.25a1.5 1.5 0 0 0 1.5 1.5c.825 0 1.5-.55 1.5-1.375S6.75 9.675 6 9.5m0-2.75V6m0 7v-.75"/>
    </g>
</svg>
