<svg xmlns="http://www.w3.org/2000/svg" width="25" height="31" viewBox="0 0 25 31">
    <g fill="none" fill-rule="evenodd" stroke="#202020" stroke-linecap="round" stroke-linejoin="round" stroke-width=".96">
        <path d="M15.375 8.733S24 15.5 24 25.167C24 27.836 21.855 30 19.208 30H5.792C3.145 30 1 27.836 1 25.167 1 15.5 9.625 8.733 9.625 8.733s-5.75-5.026-5.75-6.766c0-1.74 3.833.966 5.75.966C12.356 2.933 12.644 1 14.417 1c1.773 0 1.964 1.982 4.791 1.982 1.102 0-.958 2.9-3.833 5.751z"/>
        <path d="M9.625 8.733h6.23A9.146 9.146 0 0 0 22.082 6.8m-.958 3.867A3.106 3.106 0 0 1 24 12.117M15.327 16.467A2.882 2.882 0 0 0 12.5 14.05c-1.581 0-2.875 1.063-2.875 2.658s1.438 2.32 2.875 2.659m-2.875 2.416c0 1.602 1.287 2.9 2.875 2.9 1.581 0 2.875-1.063 2.875-2.658s-1.438-2.32-2.875-2.658m0-5.317V12.6m0 13.533v-1.45"/>
    </g>
</svg>
