<svg xmlns="http://www.w3.org/2000/svg" width="18" height="22" viewBox="0 0 18 22">
    <g fill="none" fill-rule="evenodd" stroke="#0A0A0A" stroke-linecap="round" stroke-linejoin="round">
        <path d="M11 6.333S17 11 17 17.667A3.333 3.333 0 0 1 13.667 21H4.333A3.333 3.333 0 0 1 1 17.667C1 11 7 6.333 7 6.333S3 2.867 3 1.667c0-1.2 2.667.666 4 .666C8.9 2.333 9.1 1 10.333 1c1.234 0 1.367 1.367 3.334 1.367.766 0-.667 2-2.667 3.966z"/>
        <path d="M7 6.333h4.333A6.4 6.4 0 0 0 15.667 5M15 7.667c.8-.063 1.57.321 2 1M10.967 11.667A2 2 0 0 0 9 10c-1.1 0-2 .733-2 1.833s1 1.6 2 1.834m-2 1.666a2 2 0 0 0 2 2c1.1 0 2-.733 2-1.833s-1-1.6-2-1.833M9 10V9m0 9.333v-1"/>
    </g>
</svg>
