<svg xmlns="http://www.w3.org/2000/svg" width="60" height="60" viewBox="0 0 60 60">
    <g fill="none" fill-rule="evenodd">
        <circle cx="30" cy="30" r="30" fill="#0A0A0A"/>
        <g stroke="#FFF" stroke-linecap="round" stroke-linejoin="round">
            <path d="M34.05 22.48S44.4 30.6 44.4 42.2c0 3.203-2.574 5.8-5.75 5.8h-16.1c-3.176 0-5.75-2.597-5.75-5.8 0-11.6 10.35-19.72 10.35-19.72s-6.9-6.032-6.9-8.12c0-2.088 4.6 1.16 6.9 1.16 3.277 0 3.623-2.32 5.75-2.32s2.357 2.378 5.75 2.378c1.322 0-1.15 3.48-4.6 6.902z"/>
            <path d="M27.15 22.48h7.475a10.975 10.975 0 0 0 7.475-2.32m-1.15 4.64c1.38-.11 2.708.56 3.45 1.74M33.992 31.76a3.459 3.459 0 0 0-3.392-2.9c-1.898 0-3.45 1.276-3.45 3.19s1.725 2.784 3.45 3.19m-3.45 2.9c0 1.922 1.545 3.48 3.45 3.48 1.897 0 3.45-1.276 3.45-3.19s-1.725-2.784-3.45-3.19m0-6.38v-1.74m0 16.24v-1.74"/>
        </g>
    </g>
</svg>
