<svg xmlns="http://www.w3.org/2000/svg" width="14" height="14" viewBox="0 0 14 14">
    <g fill="none" fill-rule="nonzero">
        <path fill="#F5A623" stroke="#FFF" stroke-width=".6" d="M7 1a6 6 0 1 0 0 12A6 6 0 1 0 7 1z"/>
        <path fill="#FFF" d="M10.729 7a.282.282 0 0 0-.302.26 3.426 3.426 0 0 1-1.084 2.255A3.424 3.424 0 0 1 7 10.437a3.435 3.435 0 0 1-3.063-1.875h.782a.281.281 0 1 0 0-.562H3.28A.281.281 0 0 0 3 8.281V9.72a.281.281 0 1 0 .563 0v-.672c.305.513.723.952 1.225 1.287C5.445 10.77 6.208 11 7 11a3.985 3.985 0 0 0 2.727-1.073 3.982 3.982 0 0 0 1.261-2.625.281.281 0 0 0-.26-.301zm-.01-3a.281.281 0 0 0-.281.281v.672A4.002 4.002 0 0 0 3.01 6.698a.282.282 0 0 0 .26.301L3.29 7a.282.282 0 0 0 .28-.26 3.426 3.426 0 0 1 1.085-2.255A3.427 3.427 0 0 1 7 3.562a3.435 3.435 0 0 1 3.063 1.875H9.28a.281.281 0 1 0 0 .563h1.438A.281.281 0 0 0 11 5.719V4.28A.281.281 0 0 0 10.719 4z"/>
    </g>
</svg>
