<svg xmlns="http://www.w3.org/2000/svg" width="42" height="42" viewBox="0 0 42 42">
    <g fill="none" fill-rule="evenodd" stroke="#0A0A0A" transform="translate(1 1)">
        <circle cx="20" cy="20" r="20"/>
        <g stroke-linecap="round" stroke-linejoin="round" stroke-width=".96" transform="translate(9 9)">
            <ellipse cx="18.4" cy="2.276" rx="2.3" ry="2.276"/>
            <path d="M16.1 14.414v4.93c0 .63.515 1.139 1.15 1.139h2.3c.635 0 1.15-.51 1.15-1.138v-4.931h1.15c.635 0 1.15-.51 1.15-1.138v-5.31c0-.629-.515-1.138-1.15-1.138h-6.9c-.635 0-1.15.51-1.15 1.138v.379"/>
            <ellipse cx="4.6" cy="2.276" rx="2.3" ry="2.276"/>
            <path d="M9.2 7.966c0-.629-.515-1.138-1.15-1.138h-6.9c-.635 0-1.15.51-1.15 1.138v5.31c0 .628.515 1.138 1.15 1.138H2.3v4.93c0 .63.515 1.139 1.15 1.139h2.3c.635 0 1.15-.51 1.15-1.138v-4.931"/>
            <ellipse cx="11.5" cy="3.793" rx="2.3" ry="2.276"/>
            <path d="M14.95 8.345h-6.9c-.635 0-1.15.51-1.15 1.138v5.31c0 .629.515 1.138 1.15 1.138H9.2v4.931c0 .629.515 1.138 1.15 1.138h2.3c.635 0 1.15-.51 1.15-1.138v-4.931h1.15c.635 0 1.15-.51 1.15-1.138v-5.31c0-.629-.515-1.138-1.15-1.138z"/>
        </g>
    </g>
</svg>
