<svg xmlns="http://www.w3.org/2000/svg" width="42" height="42" viewBox="0 0 42 42">
    <g fill="none" fill-rule="evenodd" transform="translate(1 1)">
        <circle cx="20" cy="20" r="20" stroke="#0A0A0A"/>
        <g fill-rule="nonzero">
            <path d="M24.144 27.354c-1.046 1.08-2.729 1.287-4.143 1.287-1.412 0-3.096-.208-4.14-1.287h8.283zm3.196-17.089l-5.293-1.288-2.056 6.485 2.056-6.485 5.293 1.288zm4.246.443c0 1.19-.934 2.157-2.086 2.157-1.153 0-2.087-.966-2.087-2.157.026-1.173.952-2.11 2.087-2.11 1.134 0 2.06.937 2.086 2.11zm.346 12.922c0 4.466-5.367 8.087-11.987 8.087S7.958 28.097 7.958 23.63c0-4.466 5.366-8.087 11.987-8.087 6.62 0 11.987 3.62 11.987 8.087zM8.114 22.373c-.962-.436-1.584-1.42-1.583-2.506 0-1.15.694-2.177 1.74-2.571a2.591 2.591 0 0 1 2.932.81l-3.09 4.267zm20.644-4.21a2.594 2.594 0 0 1 2.943-.877c1.061.383 1.772 1.419 1.773 2.581 0 1.13-.671 2.143-1.69 2.552l-3.026-4.257z"/>
            <path fill="#0A0A0A" d="M19.944 32.258c-6.898 0-12.51-3.87-12.51-8.628 0-.328.027-.654.08-.973a3.305 3.305 0 0 1-1.506-2.79c.002-1.808 1.42-3.274 3.169-3.276.78 0 1.525.295 2.1.823 2.17-1.44 5.089-2.346 8.309-2.408l2.113-6.669.462.113.01.003 4.927 1.199c.411-.995 1.356-1.64 2.402-1.642 1.44.002 2.608 1.21 2.61 2.698-.002 1.49-1.17 2.696-2.61 2.698-1.44-.002-2.607-1.207-2.61-2.694l-4.495-1.095-1.712 5.4c3.103.125 5.905 1.034 7.997 2.442a3.097 3.097 0 0 1 2.148-.867c1.75.002 3.168 1.467 3.17 3.276.005 1.183-.612 2.276-1.611 2.854.045.299.069.601.069.908-.001 4.758-5.613 8.628-12.512 8.628zm-11.36-9.65a5.05 5.05 0 0 0-.104 1.022c0 4.162 5.143 7.547 11.464 7.547 6.322 0 11.465-3.385 11.465-7.547 0-.33-.033-.656-.096-.976a.557.557 0 0 1-.052-.235c-.35-1.42-1.304-2.71-2.683-3.749a.52.52 0 0 1-.224-.164c-2.095-1.49-5.09-2.423-8.41-2.423-3.286 0-6.255.916-8.347 2.38a.535.535 0 0 1-.21.15C9.98 19.653 9 20.95 8.637 22.383a.552.552 0 0 1-.044.207l-.008.018zm20.97-4.497c1.212 1.003 2.102 2.197 2.557 3.507a2.206 2.206 0 0 0 .84-1.75c-.001-1.213-.952-2.195-2.124-2.196-.46 0-.906.153-1.273.439zm-20.377-.439c-1.172.002-2.122.984-2.123 2.195 0 .656.282 1.265.75 1.676.47-1.3 1.37-2.484 2.587-3.477a2.079 2.079 0 0 0-1.214-.394zm20.322-8.581c-.862 0-1.563.725-1.563 1.617 0 .891.701 1.616 1.563 1.616s1.564-.725 1.564-1.616c0-.892-.701-1.617-1.564-1.617zm-9.498 20.09c-2.094 0-3.57-.473-4.51-1.446a.554.554 0 0 1 0-.764.511.511 0 0 1 .74 0c.734.76 1.967 1.13 3.77 1.13s3.037-.37 3.773-1.13a.511.511 0 0 1 .505-.14c.18.05.321.196.37.382a.553.553 0 0 1-.136.522c-.942.973-2.417 1.446-4.512 1.446z"/>
            <path fill="#0A0A0A" d="M24.242 20.035c-1.066 0-1.96.922-1.96 2.024 0 1.101.894 1.994 1.96 1.994 1.066 0 1.929-.893 1.929-1.994 0-1.102-.864-2.024-1.929-2.024zm-8.45 0c-1.065 0-1.958.924-1.958 2.024s.893 1.994 1.958 1.994 1.929-.893 1.929-1.994c0-1.1-.864-2.024-1.929-2.024z"/>
        </g>
    </g>
</svg>
