<svg xmlns="http://www.w3.org/2000/svg" width="22" height="22" viewBox="0 0 22 22">
    <g fill="none" fill-rule="evenodd" transform="translate(1 1)">
        <circle cx="10" cy="10" r="10" stroke="#0A0A0A" stroke-width=".7"/>
        <g fill-rule="nonzero">
            <path fill="#FFF" d="M12.072 13.677c-.523.54-1.365.644-2.071.644-.706 0-1.549-.104-2.07-.644h4.14zm1.598-8.544l-2.647-.644L9.996 7.73l1.028-3.242 2.646.644zm2.123.22c0 .596-.467 1.08-1.043 1.08-.576 0-1.043-.484-1.043-1.08.012-.585.476-1.054 1.043-1.054s1.03.469 1.043 1.055zm.173 6.462c0 2.233-2.684 4.043-5.994 4.043-3.31 0-5.993-1.81-5.993-4.043S6.662 7.77 9.972 7.77c3.31 0 5.994 1.81 5.994 4.044zm-11.91-.628a1.37 1.37 0 0 1-.79-1.253c-.001-.575.347-1.09.87-1.286a1.296 1.296 0 0 1 1.466.405l-1.545 2.134zM14.38 9.08c.35-.454.94-.63 1.471-.438.531.192.887.71.887 1.29 0 .565-.336 1.072-.845 1.276L14.38 9.081z"/>
            <path fill="#0A0A0A" d="M9.972 16.129c-3.449 0-6.255-1.935-6.255-4.314 0-.164.014-.327.04-.487a1.652 1.652 0 0 1-.753-1.394c0-.905.71-1.637 1.584-1.639.39 0 .763.148 1.05.412 1.086-.72 2.545-1.173 4.155-1.204l1.057-3.334.23.056.006.001 2.463.6c.206-.497.678-.82 1.2-.82.721 0 1.305.604 1.306 1.348-.001.745-.585 1.348-1.305 1.349-.72 0-1.303-.603-1.305-1.347l-2.248-.547-.855 2.7c1.551.062 2.952.516 3.998 1.22.292-.28.676-.434 1.074-.433.875 0 1.584.734 1.585 1.638a1.637 1.637 0 0 1-.806 1.427c.023.15.035.3.035.454 0 2.379-2.807 4.314-6.256 4.314zm-5.68-4.825c-.034.168-.052.34-.052.511 0 2.081 2.571 3.773 5.732 3.773 3.16 0 5.732-1.692 5.732-3.773 0-.165-.016-.328-.048-.488a.279.279 0 0 1-.025-.118c-.175-.71-.653-1.354-1.342-1.874a.26.26 0 0 1-.112-.082c-1.048-.745-2.545-1.211-4.205-1.211-1.643 0-3.127.457-4.173 1.19a.267.267 0 0 1-.105.075c-.704.52-1.194 1.168-1.376 1.884a.276.276 0 0 1-.022.104c0 .003-.002.006-.004.009zm10.485-2.249c.606.502 1.051 1.099 1.279 1.754.265-.207.42-.532.42-.875-.001-.606-.476-1.097-1.062-1.098-.23 0-.454.077-.637.22zM4.588 8.836c-.586 0-1.06.492-1.061 1.098 0 .327.141.632.375.837.235-.65.685-1.242 1.294-1.738a1.04 1.04 0 0 0-.608-.197zm10.162-4.29a.796.796 0 0 0-.782.808c0 .446.35.808.782.808.43 0 .781-.362.781-.808a.796.796 0 0 0-.781-.808zM10 14.59c-1.046 0-1.784-.237-2.255-.723a.277.277 0 0 1 0-.383.256.256 0 0 1 .37 0c.368.38.984.565 1.886.565.901 0 1.518-.185 1.886-.565a.256.256 0 0 1 .252-.07c.09.026.161.099.185.192a.276.276 0 0 1-.068.26c-.47.487-1.208.724-2.255.724z"/>
            <path fill="#0A0A0A" d="M12.121 10.017c-.533 0-.98.462-.98 1.013 0 .55.447.996.98.996.533 0 .964-.446.964-.996 0-.551-.431-1.013-.964-1.013zm-4.225 0c-.532 0-.98.462-.98 1.013 0 .55.447.996.98.996.533 0 .964-.446.964-.996s-.432-1.013-.964-1.013z"/>
        </g>
    </g>
</svg>
