<svg xmlns="http://www.w3.org/2000/svg" width="32" height="32" viewBox="0 0 32 32">
    <g fill="none" fill-rule="evenodd" transform="translate(1 1)">
        <circle cx="15" cy="15" r="15" stroke="#8B9699"/>
        <path fill="#0A0A0A" fill-rule="nonzero" d="M18.108 20.515c-.784.81-2.047.966-3.107.966-1.059 0-2.323-.156-3.105-.966h6.212zM20.505 7.7l-3.97-.966-1.541 4.863 1.541-4.863 3.97.966zm3.185.332c0 .893-.7 1.617-1.565 1.617-.864 0-1.565-.724-1.565-1.617.019-.88.714-1.582 1.565-1.582.85 0 1.546.703 1.565 1.582zm.259 9.691c0 3.35-4.025 6.066-8.99 6.066-4.966 0-8.99-2.716-8.99-6.066 0-3.349 4.024-6.065 8.99-6.065 4.965 0 8.99 2.716 8.99 6.065zM6.085 16.78a2.056 2.056 0 0 1-1.187-1.88c0-.862.521-1.633 1.305-1.928a1.943 1.943 0 0 1 2.2.608l-2.318 3.2zm15.483-3.158a1.946 1.946 0 0 1 2.208-.658c.796.288 1.329 1.065 1.33 1.936 0 .847-.504 1.607-1.268 1.914l-2.27-3.192z"/>
        <path fill="#8B9699" fill-rule="nonzero" d="M14.958 24.193c-5.173 0-9.382-2.902-9.382-6.47 0-.247.02-.49.059-.73a2.478 2.478 0 0 1-1.13-2.093c.002-1.356 1.066-2.455 2.378-2.457.585 0 1.143.222 1.575.617 1.627-1.08 3.816-1.759 6.231-1.806l1.586-5 .346.083.008.002 3.695.9a1.96 1.96 0 0 1 1.8-1.231c1.081.001 1.957.906 1.958 2.023-.001 1.117-.877 2.022-1.957 2.023-1.08 0-1.955-.904-1.957-2.02l-3.372-.82-1.283 4.05c2.327.093 4.428.774 5.997 1.83a2.322 2.322 0 0 1 1.611-.65c1.312.001 2.376 1.1 2.377 2.457a2.455 2.455 0 0 1-1.208 2.14c.034.225.052.452.052.682 0 3.568-4.21 6.47-9.384 6.47zm-8.52-7.237c-.051.252-.078.509-.078.767 0 3.121 3.857 5.66 8.598 5.66 4.741 0 8.598-2.54 8.598-5.66a3.77 3.77 0 0 0-.071-.733.418.418 0 0 1-.04-.176c-.262-1.065-.977-2.032-2.011-2.811a.39.39 0 0 1-.169-.123c-1.571-1.117-3.817-1.817-6.307-1.817-2.465 0-4.69.686-6.26 1.784a.401.401 0 0 1-.157.113c-1.057.78-1.79 1.753-2.063 2.827a.414.414 0 0 1-.033.156l-.006.013zm15.727-3.373c.91.752 1.577 1.648 1.919 2.63.398-.31.631-.797.629-1.313 0-.908-.713-1.645-1.593-1.646-.344 0-.68.115-.955.33zm-15.282-.329c-.88.001-1.592.738-1.593 1.646 0 .492.212.949.563 1.257.353-.975 1.027-1.863 1.94-2.608a1.56 1.56 0 0 0-.91-.295zm15.241-6.436c-.646 0-1.172.544-1.172 1.213 0 .668.526 1.212 1.172 1.212.647 0 1.173-.544 1.173-1.212 0-.669-.526-1.213-1.173-1.213zm-7.123 15.068c-1.57 0-2.678-.355-3.383-1.085a.415.415 0 0 1 0-.573.383.383 0 0 1 .555 0c.55.57 1.476.847 2.828.847 1.352 0 2.278-.277 2.83-.847a.383.383 0 0 1 .378-.105c.135.038.241.147.277.287a.415.415 0 0 1-.101.391c-.707.73-1.813 1.085-3.384 1.085z"/>
        <path fill="#8B9699" fill-rule="nonzero" d="M18.182 15.026c-.8 0-1.47.692-1.47 1.518 0 .826.67 1.495 1.47 1.495.799 0 1.446-.669 1.446-1.495 0-.826-.648-1.518-1.446-1.518zm-6.338 0c-.798 0-1.469.693-1.469 1.518 0 .826.67 1.495 1.47 1.495.798 0 1.446-.67 1.446-1.495 0-.825-.648-1.518-1.447-1.518z"/>
    </g>
</svg>
