<svg xmlns="http://www.w3.org/2000/svg" width="42" height="42" viewBox="0 0 42 42">
    <g fill="none" fill-rule="evenodd" stroke="#0A0A0A" transform="translate(1 1)">
        <circle cx="20" cy="20" r="20"/>
        <g stroke-linecap="round" stroke-linejoin="round">
            <path d="M29.928 18.798a7.28 7.28 0 0 0 .118-1.255c0-4.817-4.76-8.743-10.623-8.743C13.561 8.8 8.8 12.726 8.8 17.543c0 2.469 1.22 4.655 3.226 6.274l-2.4 4.816 6.885-2.671c.956.22 1.933.328 2.912.324l1.377-.081a9.218 9.218 0 0 0 1.77-.405"/>
            <path d="M29.692 18.514l-8.262 8.5-1.574 4.453 4.328-1.62 8.262-8.5-2.518-2.55-.236-.283zm-8.262 8.5l2.754 2.834-2.754-2.834z"/>
        </g>
    </g>
</svg>
