<svg xmlns="http://www.w3.org/2000/svg" width="20" height="19" viewBox="0 0 20 19">
    <g fill="none" fill-rule="evenodd" stroke="#8B9699" stroke-linecap="round" stroke-linejoin="round" stroke-width=".8">
        <path d="M17.111 8.498a5.46 5.46 0 0 0 .089-.94C17.2 3.944 13.63 1 9.233 1S1.266 3.945 1.266 7.557c0 1.852.914 3.491 2.42 4.705l-1.8 3.613 5.163-2.004c.717.165 1.45.247 2.184.243l1.033-.06a6.913 6.913 0 0 0 1.327-.304"/>
        <path d="M16.934 8.286l-6.196 6.375L9.558 18l3.245-1.214L19 10.41l-1.889-1.913-.177-.212zm-6.196 6.375l2.065 2.125-2.065-2.125z"/>
    </g>
</svg>
