<svg xmlns="http://www.w3.org/2000/svg" width="42" height="42" viewBox="0 0 42 42">
    <g fill="none" fill-rule="evenodd" stroke="#0A0A0A" transform="translate(1 1)">
        <circle cx="20" cy="20" r="20"/>
        <path d="M10.894 10.702c.249-.169.427-.1.39.099-.036.37-.143.705-.179 1.075a6.86 6.86 0 0 0-.035 1.479c.035.638.18 1.242.429 1.814.249.537.535 1.075.82 1.579a221.77 221.77 0 0 1 2.105 4.233c.322.707.644 1.379.929 2.084.284.738.426 1.445.178 2.217-.5 1.546-1.855 2.688-3.104 3.696-.213.167-.82.772-.677.167.177-.907.5-1.78.642-2.688.177-1.277-.571-2.62-1.107-3.763-.677-1.443-1.462-2.821-2.175-4.231-.715-1.377-1.464-2.956-.928-4.502.464-1.311 1.606-2.386 2.712-3.259zm16.34 0c.25-.169.428-.1.39.1-.035.371-.142.706-.177 1.076a6.86 6.86 0 0 0-.036 1.479c.036.638.18 1.242.429 1.813.249.538.535 1.076.82 1.58a221.769 221.769 0 0 1 2.105 4.233c.322.707.644 1.379.929 2.084.284.738.427 1.445.178 2.217-.5 1.545-1.855 2.688-3.104 3.696-.213.167-.82.772-.677.167.177-.908.5-1.78.642-2.688.177-1.278-.571-2.62-1.107-3.763-.677-1.445-1.463-2.821-2.177-4.233-.715-1.377-1.463-2.956-.928-4.502.464-1.31 1.606-2.384 2.712-3.259zm-8.42-2.554c.322-.234.535-.2.428.17 0 .403-.142.772-.177 1.175-.071.605-.107 1.243-.071 1.847.035.806.177 1.613.5 2.385.213.571.57 1.109.855 1.68a126.398 126.398 0 0 1 2.461 4.871c.429.875.856 1.747 1.249 2.653.355.772.784 1.577.855 2.418.142 2.048-1.535 3.796-2.997 5.106a17.714 17.714 0 0 1-1.748 1.445c-.144.1-.286.201-.322-.033-.036-.303.178-.705.249-1.008.32-1.042.713-2.218.642-3.326-.071-.908-.462-1.816-.82-2.621-1-2.284-2.355-4.401-3.39-6.652-.535-1.175-1.033-2.385-1.39-3.594-.285-1.006-.214-2.014.321-2.989.751-1.376 2.106-2.552 3.355-3.527z"/>
    </g>
</svg>
