<svg xmlns="http://www.w3.org/2000/svg" width="32" height="32" viewBox="0 0 32 32">
    <g fill="none" fill-rule="evenodd" stroke="#8B9699" transform="translate(1 1)">
        <circle cx="15" cy="15" r="15"/>
        <path fill-rule="nonzero" d="M8.17 8.027c.187-.127.32-.076.292.074-.026.277-.106.528-.133.806a5.144 5.144 0 0 0-.027 1.11c.027.478.135.931.322 1.36.187.403.401.806.615 1.184a166.327 166.327 0 0 1 1.58 3.175c.24.53.482 1.034.696 1.562.213.554.32 1.084.133 1.663-.375 1.16-1.391 2.016-2.328 2.772-.16.126-.615.58-.508.126.133-.68.375-1.335.482-2.016.133-.958-.429-1.966-.83-2.822-.508-1.083-1.096-2.116-1.631-3.174-.537-1.032-1.098-2.217-.697-3.376.349-.984 1.205-1.79 2.035-2.444zm12.255 0c.188-.127.321-.076.293.075-.026.278-.106.529-.133.806a5.144 5.144 0 0 0-.027 1.11c.027.478.135.931.322 1.36.186.403.401.806.615 1.184a166.327 166.327 0 0 1 1.579 3.175c.242.53.483 1.034.696 1.563.214.554.32 1.084.134 1.663-.375 1.16-1.391 2.016-2.328 2.772-.16.125-.615.579-.508.125.133-.68.375-1.335.481-2.016.134-.958-.428-1.965-.83-2.822-.507-1.084-1.097-2.116-1.632-3.175-.536-1.032-1.098-2.217-.696-3.376.348-.982 1.204-1.789 2.034-2.444zM14.11 6.11c.242-.175.402-.15.322.127 0 .303-.107.58-.133.882-.054.453-.08.932-.054 1.385.027.604.134 1.21.375 1.789.16.428.428.831.642 1.26a94.798 94.798 0 0 1 1.846 3.653c.321.656.641 1.31.936 1.99.267.579.588 1.183.642 1.813.106 1.536-1.152 2.848-2.248 3.83-.402.378-.856.756-1.311 1.084-.108.075-.215.15-.242-.025-.026-.228.134-.53.187-.757.24-.78.535-1.662.481-2.494-.053-.68-.346-1.362-.614-1.966-.75-1.713-1.767-3.3-2.543-4.988-.401-.882-.775-1.789-1.043-2.696-.213-.754-.16-1.51.242-2.242.563-1.032 1.579-1.914 2.515-2.645z"/>
    </g>
</svg>
