<svg xmlns="http://www.w3.org/2000/svg" width="22" height="22" viewBox="0 0 22 22">
    <g fill="none" fill-rule="evenodd" stroke="#0A0A0A" stroke-width=".7" transform="translate(1 1)">
        <circle cx="10" cy="10" r="10"/>
        <path fill-rule="nonzero" d="M5.447 5.351c.125-.084.213-.05.195.05-.018.185-.071.352-.09.537a3.43 3.43 0 0 0-.017.74c.018.318.09.62.214.906.125.269.268.538.41.79.358.706.714 1.41 1.053 2.117.161.353.322.689.464 1.041.143.37.214.723.09 1.109-.25.773-.928 1.344-1.552 1.848-.107.084-.41.386-.34.084.09-.454.25-.89.322-1.344.089-.64-.286-1.31-.553-1.882-.34-.721-.731-1.41-1.088-2.116-.357-.688-.732-1.477-.464-2.25.232-.656.803-1.194 1.356-1.63zm8.17 0c.125-.084.214-.05.195.05-.018.186-.07.353-.089.538a3.43 3.43 0 0 0-.017.74c.017.318.09.62.214.906.124.269.268.538.41.79.357.706.714 1.41 1.053 2.117.16.353.322.689.464 1.041.142.37.213.723.089 1.109-.25.773-.928 1.344-1.552 1.848-.107.084-.41.386-.339.084.09-.454.25-.89.321-1.344.09-.64-.285-1.31-.553-1.882-.339-.722-.732-1.41-1.088-2.117-.358-.688-.732-1.477-.465-2.25.233-.655.803-1.193 1.357-1.63zm-4.21-1.277c.16-.117.268-.1.214.085 0 .202-.07.386-.089.588-.035.302-.053.62-.035.923.018.403.089.807.25 1.193.106.285.285.554.427.84.428.806.839 1.612 1.231 2.435.214.437.428.873.624 1.326.178.386.392.79.428 1.21.071 1.023-.767 1.898-1.498 2.552-.268.253-.571.505-.875.723-.072.05-.143.1-.16-.017-.018-.151.088-.352.124-.504.16-.52.357-1.108.32-1.663-.035-.453-.23-.907-.409-1.31-.5-1.142-1.177-2.2-1.695-3.326a13.928 13.928 0 0 1-.695-1.797 1.917 1.917 0 0 1 .16-1.494c.376-.689 1.054-1.276 1.678-1.764z"/>
    </g>
</svg>
