<svg xmlns="http://www.w3.org/2000/svg" width="13" height="15" viewBox="0 0 13 15">
    <path fill="#000" fill-rule="nonzero" d="M1.514 1.662c.131-.103.224-.062.206.062-.019.228-.075.434-.094.661-.037.31-.037.6-.018.91.018.392.093.764.224 1.116.13.33.28.66.43.97.373.869.746 1.737 1.101 2.604.168.434.336.848.485 1.282.15.454.225.888.094 1.363-.262.951-.971 1.654-1.625 2.274-.112.103-.43.475-.355.103.094-.558.262-1.095.337-1.653.093-.786-.3-1.612-.58-2.315C1.366 8.151.955 7.304.582 6.436c-.374-.848-.766-1.819-.486-2.77.243-.805.84-1.467 1.42-2.004zm8.553 0c.13-.103.224-.062.205.062-.018.228-.074.434-.093.661-.037.31-.037.6-.019.91.019.392.094.764.224 1.116.131.33.28.66.43.97.373.869.747 1.737 1.101 2.604.169.434.337.848.486 1.282.15.454.224.888.093 1.363-.261.951-.97 1.654-1.624 2.274-.112.103-.43.475-.355.103.093-.558.261-1.095.336-1.653.093-.786-.299-1.612-.579-2.315-.355-.888-.765-1.735-1.139-2.603-.373-.848-.765-1.819-.485-2.77.242-.805.84-1.467 1.419-2.004zM5.66.092c.168-.145.28-.124.224.103 0 .248-.075.475-.093.723a7.709 7.709 0 0 0-.038 1.137c.019.496.094.992.262 1.467.112.351.298.682.448 1.033.448.992.877 1.984 1.288 2.997.224.537.448 1.074.654 1.632.187.475.41.971.448 1.488.075 1.26-.803 2.335-1.569 3.14-.28.31-.597.62-.915.89-.074.061-.149.123-.168-.021-.018-.186.094-.434.131-.62.168-.64.374-1.364.336-2.046-.037-.558-.243-1.116-.43-1.612-.522-1.405-1.232-2.707-1.773-4.091A19.003 19.003 0 0 1 3.736 4.1c-.149-.62-.112-1.24.168-1.84.393-.847 1.102-1.57 1.756-2.17z"/>
</svg>
