<svg xmlns="http://www.w3.org/2000/svg" width="42" height="42" viewBox="0 0 42 42">
    <g fill="none" fill-rule="evenodd" stroke="#0A0A0A" transform="translate(1 1)">
        <circle cx="20" cy="20" r="20"/>
        <path stroke-linecap="round" stroke-linejoin="round" d="M33.316 13.412c-.472.192-.956.347-1.449.465a.215.215 0 0 1-.243-.122.256.256 0 0 1 .044-.287 7.274 7.274 0 0 0 1.375-2.047.256.256 0 0 0-.045-.275.207.207 0 0 0-.253-.042c-.895.522-1.87.859-2.877.994-1.055-1.142-2.479-1.788-3.966-1.8-1.447-.002-2.834.624-3.857 1.738-1.023 1.114-1.597 2.625-1.596 4.201-.002.439.04.876.124 1.305-3.987-.131-8.642-2.23-11.361-5.88a.213.213 0 0 0-.192-.089.22.22 0 0 0-.174.125c-1.077 2.417-.544 5.319 1.303 7.099.074.066.1.176.066.273a.22.22 0 0 1-.218.153 3.195 3.195 0 0 1-1.366-.384.205.205 0 0 0-.22.013.247.247 0 0 0-.1.216c.091 2.322 1.491 4.341 3.517 5.072.094.037.154.139.144.248a.233.233 0 0 1-.184.215 5.087 5.087 0 0 1-1.249 0 .214.214 0 0 0-.191.085.26.26 0 0 0-.045.22c.374 1.575 2.244 3.42 4.336 3.672a.227.227 0 0 1 .182.168c.025.09 0 .188-.065.25-1.744 1.522-3.936 2.302-6.169 2.197a.223.223 0 0 0-.222.177.248.248 0 0 0 .11.275 15.364 15.364 0 0 0 7.637 2.048c4.178.03 8.183-1.814 11.075-5.1 2.891-3.285 4.414-7.722 4.21-12.268v-.225a9.737 9.737 0 0 0 2.175-2.322.257.257 0 0 0-.002-.288.21.21 0 0 0-.254-.08z"/>
    </g>
</svg>
