<svg xmlns="http://www.w3.org/2000/svg" width="22" height="22" viewBox="0 0 22 22">
    <g fill="none" fill-rule="evenodd" stroke-width=".7" transform="translate(1 1)">
        <circle cx="10" cy="10" r="10" stroke="#0A0A0A"/>
        <path stroke="#202020" stroke-linecap="round" stroke-linejoin="round" d="M16.658 6.706a5.022 5.022 0 0 1-.724.232.107.107 0 0 1-.122-.06.128.128 0 0 1 .022-.144c.283-.295.515-.641.687-1.023a.128.128 0 0 0-.022-.138.103.103 0 0 0-.127-.021c-.447.261-.934.43-1.438.497a2.734 2.734 0 0 0-1.983-.9c-.723 0-1.417.312-1.929.869a3.107 3.107 0 0 0-.797 2.1c-.001.22.02.439.061.653-1.993-.066-4.32-1.115-5.68-2.94a.106.106 0 0 0-.096-.044.11.11 0 0 0-.087.062c-.538 1.208-.272 2.66.651 3.55.037.032.05.087.034.136a.11.11 0 0 1-.11.076 1.598 1.598 0 0 1-.682-.192.102.102 0 0 0-.11.007.124.124 0 0 0-.05.108c.045 1.161.745 2.17 1.758 2.536a.12.12 0 0 1 .072.124.116.116 0 0 1-.092.107 2.544 2.544 0 0 1-.624 0 .107.107 0 0 0-.096.043.13.13 0 0 0-.023.11c.188.787 1.122 1.71 2.168 1.836a.113.113 0 0 1 .091.084.127.127 0 0 1-.032.125c-.872.76-1.968 1.151-3.085 1.098a.112.112 0 0 0-.11.089.124.124 0 0 0 .054.138 7.682 7.682 0 0 0 3.819 1.023c2.089.015 4.092-.907 5.537-2.55 1.446-1.642 2.208-3.86 2.106-6.133V8.05c.418-.32.785-.712 1.087-1.161a.129.129 0 0 0 0-.144.105.105 0 0 0-.128-.04z"/>
    </g>
</svg>
