<svg xmlns="http://www.w3.org/2000/svg" width="12" height="12" viewBox="0 0 12 12">
    <path fill="#0A0A0A" fill-rule="evenodd" d="M10.545 2.36A5.798 5.798 0 0 0 6 .177 5.8 5.8 0 0 0 1.455 2.36 5.768 5.768 0 0 0 .176 6c0 1.338.443 2.596 1.279 3.64A5.8 5.8 0 0 0 6 11.824a5.8 5.8 0 0 0 4.545-2.184A5.768 5.768 0 0 0 11.824 6a5.763 5.763 0 0 0-1.279-3.64zm-.27 6.78a7.05 7.05 0 0 0-1.583-.61c.166-.688.265-1.456.282-2.271h2.325a5.229 5.229 0 0 1-1.023 2.882zm-8.55 0A5.229 5.229 0 0 1 .7 6.26h2.325c.017.815.116 1.583.282 2.271a7.065 7.065 0 0 0-1.584.61zm0-6.28a7.05 7.05 0 0 0 1.583.61 10.82 10.82 0 0 0-.282 2.271H.701A5.229 5.229 0 0 1 1.724 2.86zm4.534.936a10.84 10.84 0 0 0 1.92-.208c.16.654.258 1.384.276 2.152H6.259V3.796zm0-.518V.725c.734.175 1.383 1.08 1.783 2.363-.56.112-1.162.176-1.783.19zM5.74.725v2.553a10.43 10.43 0 0 1-1.783-.19C4.358 1.808 5.008.9 5.74.725zm0 3.071v1.945H3.544c.018-.767.116-1.497.275-2.152a11.02 11.02 0 0 0 1.922.207zM3.544 6.259H5.74v1.945a10.84 10.84 0 0 0-1.92.208 10.152 10.152 0 0 1-.277-2.153zM5.74 8.722v2.553c-.734-.175-1.383-1.08-1.783-2.364.56-.11 1.162-.175 1.783-.19zm.518 2.553V8.722a10.43 10.43 0 0 1 1.783.19c-.4 1.28-1.05 2.188-1.783 2.363zm0-3.07V6.258h2.197a10.193 10.193 0 0 1-.275 2.152 11.02 11.02 0 0 0-1.922-.207zM8.974 5.74a10.69 10.69 0 0 0-.282-2.271 7.014 7.014 0 0 0 1.584-.61 5.23 5.23 0 0 1 1.023 2.881H8.974zm.968-3.29a6.64 6.64 0 0 1-1.386.521C8.289 2.101 7.91 1.387 7.454.896A5.29 5.29 0 0 1 9.942 2.45zM4.547.895c-.456.49-.835 1.204-1.102 2.075A6.601 6.601 0 0 1 2.06 2.45 5.288 5.288 0 0 1 4.547.896zM2.058 9.55a6.64 6.64 0 0 1 1.386-.522c.267.871.646 1.587 1.102 2.076A5.29 5.29 0 0 1 2.058 9.55zm5.395 1.554c.456-.49.835-1.204 1.102-2.075.513.134.98.309 1.386.521a5.288 5.288 0 0 1-2.488 1.554z"/>
</svg>
