<svg xmlns="http://www.w3.org/2000/svg" width="20" height="20" viewBox="0 0 20 20">
    <g fill="none" fill-rule="evenodd" stroke="#0A0A0A" stroke-linecap="round" stroke-linejoin="round">
        <path d="M4.6 8.082H1.9a.893.893 0 0 1-.9-.885V1.885C1 1.396 1.403 1 1.9 1h16.2c.497 0 .9.396.9.885v5.312a.893.893 0 0 1-.9.885h-2.7"/>
        <path d="M4.6 5.72H3.4V3.36h13.2v2.36h-1.2"/>
        <path d="M15.399 3.362v12.981h-10.8V3.362M12.4 16.344c0-1.63 1.343-2.95 3-2.95m-10.8 0c.796 0 1.559.31 2.121.864.563.553.879 1.304.879 2.086M4 18.705h12"/>
        <path d="M8.5 9.406c0 .815.672 1.476 1.5 1.476.829 0 1.5-.538 1.5-1.353s-.75-1.186-1.5-1.352c-.75-.166-1.5-.538-1.5-1.353 0-.814.671-1.352 1.5-1.352.732 0 1.356.52 1.479 1.229M10.149 5.472v-.738m0 6.885v-.737"/>
    </g>
</svg>
