<svg xmlns="http://www.w3.org/2000/svg" width="22" height="22" viewBox="0 0 22 22">
    <g fill="none" fill-rule="evenodd" stroke-width=".7" transform="translate(1 1)">
        <circle cx="10" cy="10" r="10" stroke="#0A0A0A"/>
        <g stroke="#202020" stroke-linecap="round" stroke-linejoin="round">
            <path d="M13.508 6H6.492C5.123 5.993 4.008 7.085 4 8.438v3.431c.008 1.354 1.123 2.445 2.492 2.439h7.016c1.369.006 2.484-1.085 2.492-2.439V8.44C15.992 7.084 14.877 5.992 13.508 6z"/>
            <path d="M11.822 10.32L8.54 11.853a.133.133 0 0 1-.126-.007.13.13 0 0 1-.062-.109V8.578a.13.13 0 0 1 .064-.11.133.133 0 0 1 .128-.005l3.281 1.627a.128.128 0 0 1-.003.23z"/>
        </g>
    </g>
</svg>
