<svg xmlns="http://www.w3.org/2000/svg" width="42" height="42" viewBox="0 0 42 42">
    <g fill="none" fill-rule="evenodd" transform="translate(1 1)">
        <circle cx="20" cy="20" r="20" stroke="#0A0A0A"/>
        <g stroke="#202020" stroke-linecap="round" stroke-linejoin="round">
            <path d="M27.016 12H12.984c-2.737-.013-4.968 2.17-4.984 4.877v6.862c.016 2.707 2.247 4.89 4.984 4.876h14.032c2.737.014 4.968-2.169 4.984-4.876v-6.862c-.016-2.708-2.247-4.89-4.984-4.877z"/>
            <path d="M23.644 20.642l-6.564 3.062a.266.266 0 0 1-.251-.015.26.26 0 0 1-.124-.216v-6.318a.26.26 0 0 1 .126-.22.266.266 0 0 1 .256-.01l6.563 3.254a.256.256 0 0 1-.006.463z"/>
        </g>
    </g>
</svg>
